<svg width="1971" height="1701" viewBox="0 0 1971 1701" fill="none" xmlns="http://www.w3.org/2000/svg">
  <path d="M303 573C245.298 574.898 66 1235 75.9999 1264C85.9998 1293 603.08 1521.61 956 1624M303 573C307.662 659.765 420.899 725.177 546 773M303 573C310.882 527.937 394.213 455.278 504 379.228M907.5 869C921 871 938.4 1340.45 956 1624M907.5 869C899.813 867.861 711.414 836.234 546 773M907.5 869C997.093 848.095 1127.47 782.915 1237.5 724.5M956 1624C1015.91 1617.66 1129.35 1555.88 1264.5 1462.52M1685.5 389C1785.5 583.5 1876.5 836 1890.5 932C1700.48 1126.74 1459.82 1327.6 1264.5 1462.52M1685.5 389C1571.22 356.733 1466.22 300.942 1362 240.5M1685.5 389C1587.74 510.892 1422.21 626.434 1237.5 724.5M1264.5 1462.52C1267.9 1399.36 1242 1097.5 1228.5 1062M546 773C882.692 554.802 1061.96 446.894 1362 240.5M1362 240.5C1233.67 166.073 1114.83 87.6923 1082 75C1022.51 75 714.588 233.352 504 379.228M504 379.228C744.754 563.336 919.614 625.605 1237.5 724.5" stroke="white" stroke-width="150"/>
</svg>
